<?xml version="1.0" encoding="UTF-8"?>
<!-- Generator: Adobe Illustrator 16.0.0, SVG Export Plug-In . SVG Version: 6.00 Build 0)  -->
<!DOCTYPE svg PUBLIC "-//W3C//DTD SVG 1.1//EN" "http://www.w3.org/Graphics/SVG/1.1/DTD/svg11.dtd">
<svg version="1.1" id="Layer_1" xmlns="http://www.w3.org/2000/svg" xmlns:xlink="http://www.w3.org/1999/xlink" x="0px" y="0px" width="130px" height="41px" viewBox="0 0 130 41" enable-background="new 0 0 130 41" xml:space="preserve">
<g>
	<path fill="#FFFFFF" d="M15.964,11.742c0-0.262,0.21-0.499,0.499-0.499h6.332c3.232,0,5.885,2.628,5.885,5.807   c0,3.258-2.653,5.911-5.858,5.911h-2.759v6.174c0,0.263-0.236,0.501-0.499,0.501h-3.1c-0.289,0-0.499-0.238-0.499-0.501V11.742z    M22.559,19.126c1.129,0,2.075-0.895,2.075-2.076c0-1.104-0.945-1.945-2.075-1.945h-2.497v4.021H22.559z"/>
	<path fill="#FFFFFF" d="M36.169,11.814c0-0.263,0.211-0.5,0.5-0.5h3.129c0.262,0,0.499,0.237,0.499,0.5v14.038h6.256   c0.289,0,0.5,0.236,0.5,0.499v2.867c0,0.261-0.211,0.498-0.5,0.498h-9.884c-0.289,0-0.5-0.237-0.5-0.498V11.814z"/>
	<path fill="#FFFFFF" d="M88.12,29.214c0,0.266-0.212,0.503-0.506,0.503h-3.153c-0.265,0-0.503-0.237-0.503-0.503v-14.15h-6.306   c-0.289,0-0.501-0.238-0.501-0.503v-2.888c0-0.265,0.212-0.504,0.501-0.504h9.962c0.294,0,0.506,0.239,0.506,0.504V29.214z"/>
	<path fill="#FFFFFF" d="M54.499,11.666c0-0.261,0.236-0.497,0.497-0.497h3.213c0.287,0,0.496,0.236,0.496,0.497v10.58   c0,1.828,1.358,3.291,3.214,3.291c1.881,0,3.265-1.463,3.265-3.291v-10.58c0-0.261,0.209-0.497,0.497-0.497h3.213   c0.261,0,0.497,0.236,0.497,0.497v10.788c0,3.971-3.345,7.263-7.472,7.263c-4.102,0-7.42-3.292-7.42-7.263V11.666z"/>
	<path fill="#FFFFFF" d="M104.358,11.391c5.069,0,9.127,4.081,9.127,9.152c0,5.068-4.058,9.1-9.127,9.1s-9.102-4.032-9.102-9.1   C95.257,15.472,99.289,11.391,104.358,11.391z M104.358,25.586c2.789,0,5.069-2.281,5.069-5.043c0-2.79-2.28-5.095-5.069-5.095   c-2.763,0-5.043,2.305-5.043,5.095C99.315,23.305,101.596,25.586,104.358,25.586z"/>
	<g>
		<path fill="#FFFFFF" d="M127.832,40.308c0,0.313-0.258,0.571-0.572,0.571H0.571C0.257,40.879,0,40.621,0,40.308V0.571    C0,0.257,0.257,0,0.571,0L127.26,0.016c0.314,0,0.572,0.257,0.572,0.571V40.308z M3.979,37.138h119.859V3.756H3.979V37.138z"/>
	</g>
</g>
</svg>